<?xml version="1.0" encoding="UTF-8" standalone="no"?>
<!-- Created with Inkscape (http://www.inkscape.org/) -->

<svg
   width="3840"
   height="2160"
   viewBox="0 0 3840 2160"
   version="1.1"
   id="svg1"
   inkscape:version="1.3.2 (091e20e, 2023-11-25, custom)"
   sodipodi:docname="Main Menu mockup.svg"
   xmlns:inkscape="http://www.inkscape.org/namespaces/inkscape"
   xmlns:sodipodi="http://sodipodi.sourceforge.net/DTD/sodipodi-0.dtd"
   xmlns:xlink="http://www.w3.org/1999/xlink"
   xmlns="http://www.w3.org/2000/svg"
   xmlns:svg="http://www.w3.org/2000/svg">
  <sodipodi:namedview
     id="namedview1"
     pagecolor="#505050"
     bordercolor="#ffffff"
     borderopacity="1"
     inkscape:showpageshadow="0"
     inkscape:pageopacity="0"
     inkscape:pagecheckerboard="1"
     inkscape:deskcolor="#505050"
     inkscape:document-units="px"
     inkscape:zoom="0.82053848"
     inkscape:cx="811.05276"
     inkscape:cy="904.89357"
     inkscape:window-width="1728"
     inkscape:window-height="1055"
     inkscape:window-x="-7"
     inkscape:window-y="-7"
     inkscape:window-maximized="1"
     inkscape:current-layer="layer1" />
  <defs
     id="defs1">
    <rect
       x="58.599641"
       y="861.75943"
       width="958.27648"
       height="89.62298"
       id="rect38" />
    <rect
       x="58.599641"
       y="868.6535"
       width="951.38241"
       height="93.070018"
       id="rect36" />
    <rect
       x="51.705566"
       y="851.41831"
       width="978.95871"
       height="110.30521"
       id="rect35" />
    <rect
       x="58.599641"
       y="844.52424"
       width="965.17056"
       height="117.19928"
       id="rect34" />
    <rect
       x="58.599641"
       y="854.86535"
       width="958.27648"
       height="103.41113"
       id="rect33" />
    <rect
       x="62.046679"
       y="844.52424"
       width="965.17056"
       height="113.75224"
       id="rect32" />
    <clipPath
       clipPathUnits="userSpaceOnUse"
       id="clipPath55">
      <path
         id="path55"
         style="stroke-width:0.1;stroke-linecap:square;paint-order:markers fill stroke;stop-color:#000000"
         d="m 1736.6147,-745.57287 h 1589.4765 v 72.46715 H 1736.6147 Z" />
    </clipPath>
    <linearGradient
       id="swatch30"
       inkscape:swatch="solid">
      <stop
         style="stop-color:#f4d7ee;stop-opacity:1;"
         offset="0"
         id="stop30" />
    </linearGradient>
    <linearGradient
       id="linearGradient26"
       inkscape:swatch="gradient">
      <stop
         style="stop-color:#ececec;stop-opacity:1;"
         offset="0"
         id="stop27" />
      <stop
         style="stop-color:#000000;stop-opacity:0;"
         offset="1"
         id="stop28" />
    </linearGradient>
    <linearGradient
       id="swatch21"
       inkscape:swatch="solid">
      <stop
         style="stop-color:#000000;stop-opacity:1;"
         offset="0"
         id="stop22" />
    </linearGradient>
    <linearGradient
       id="linearGradient18"
       inkscape:collect="always">
      <stop
         style="stop-color:#f4ac3e;stop-opacity:1;"
         offset="0"
         id="stop18" />
      <stop
         style="stop-color:#cf4448;stop-opacity:1;"
         offset="0.58449715"
         id="stop20" />
      <stop
         style="stop-color:#b90b4f;stop-opacity:1;"
         offset="0.87902325"
         id="stop21" />
      <stop
         style="stop-color:#d1166e;stop-opacity:1;"
         offset="0.94154823"
         id="stop19" />
    </linearGradient>
    <rect
       x="2464.632"
       y="289.55117"
       width="1285.7451"
       height="937.59425"
       id="rect8" />
    <linearGradient
       inkscape:collect="always"
       xlink:href="#linearGradient18"
       id="linearGradient19"
       x1="4124.1211"
       y1="2057.1855"
       x2="-307.11539"
       y2="224.24298"
       gradientUnits="userSpaceOnUse"
       gradientTransform="translate(0,-2.4374238)" />
  </defs>
  <g
     inkscape:label="Layer 1"
     inkscape:groupmode="layer"
     id="layer1">
    <rect
       style="display:inline;fill:url(#linearGradient19);fill-opacity:1"
       id="rect1"
       width="3850.3411"
       height="2178.5278"
       x="-13.788177"
       y="-9.3315258"
       inkscape:label="rect1" />
    <path
       id="path28"
       style="fill:#808080;fill-opacity:0.950758;stroke:#808080;stroke-width:10;stroke-linecap:square;stroke-linejoin:bevel;stroke-dasharray:10, 10;stroke-opacity:0.763006;paint-order:fill markers stroke"
       inkscape:transform-center-x="-28.359632"
       inkscape:transform-center-y="117.14471"
       d="m 2488.3767,864.04804 c -71.9534,0.68474 -130.6046,6.47352 -140.6953,22.68361 -26.9082,43.2268 143.1045,419.57505 166.0273,464.37895 22.923,44.8037 209.0162,411.1995 257.0919,418.248 17.4987,2.5655 39.9618,-49.14 62.5741,-117.6426 29.9374,43.1457 56.1125,73.9028 68.4786,70.2656 36.5902,-10.762 100.1889,-310.835 114.7168,-344.3672 8.8084,-20.3306 59.2404,-139.8 92.8886,-237.3652 72.1153,-76.9095 135.4047,-151.42029 123.0606,-171.85153 -1.1145,-1.8447 -3.0598,-3.68831 -5.3633,-5.52932 20.2885,-19.39937 32.978,-35.03034 29.5313,-41.8047 -12.7004,-24.96224 -255.487,-39.70105 -284.0294,-42.59762 -21.2767,-2.15927 -164.42,-9.87677 -243.7578,-4.96679 -64.2869,-4.63337 -157.522,-10.24104 -240.5234,-9.4512 z" />
    <path
       id="path31"
       style="fill:#808080;fill-opacity:0.950758;stroke:#808080;stroke-width:10;stroke-linecap:square;stroke-linejoin:bevel;stroke-dasharray:10, 10;stroke-opacity:0.763006;paint-order:fill markers stroke"
       inkscape:transform-center-x="-31.290234"
       inkscape:transform-center-y="103.61728"
       d="m 417.85938,836.41843 c -80.06472,-4.29614 -145.92297,-3.58543 -158.06323,8.37677 -16.86466,16.61739 34.91034,115.39058 90.22618,212.8256 -1.33317,46.6602 -1.28393,90.2128 -3.06838,101.1118 -4.17626,25.507 -68.84989,248.9144 -45.32385,263.085 0.34495,0.2077 0.83162,0.298 1.24126,0.4519 -6.55115,4.8886 -11.67251,9.1016 -13.5664,11.7661 -7.85039,11.0445 28.67439,24.6379 76.15039,38.7599 6.84253,38.1885 13.0943,68.6167 16.03408,75.744 9.82268,23.8154 -0.0685,322.2643 25.6023,330.039 19.21994,5.8208 143.74531,-106.8778 210.66915,-173.5144 2.22949,1.5388 4.40092,2.6503 6.43667,2.7749 7.94193,0.4865 19.91259,-9.7308 34.07865,-26.1967 64.95053,82.9937 136.56845,169.5158 154.16835,170.8871 32.20699,2.5092 -26.19458,-241.545 -10.57617,-274.5362 15.49507,-32.7308 175.22242,-307.2639 154.12671,-337.2113 C 1047.6679,1153.6604 1184.3205,1025.2712 1170.0243,995.221 1149.6586,952.41284 800.74992,880.39661 753.64474,870.70453 724.20398,864.64696 551.3007,843.57886 417.85938,836.41843 Z" />
  </g>
  <g
     inkscape:groupmode="layer"
     id="layer2"
     inkscape:label="Layer 2">
    <g
       id="g35">
      <rect
         style="fill:none;fill-opacity:1;fill-rule:nonzero;stroke:#ececec;stroke-width:8.11486;stroke-linecap:square;stroke-linejoin:bevel;stroke-dasharray:8.11486, 8.11486;stroke-dashoffset:0;stroke-opacity:1;paint-order:fill markers stroke"
         id="rect21"
         width="1029.1024"
         height="851.92279"
         x="33.527809"
         y="1227.5814" />
      <path
         id="rect31"
         style="fill:#ececec;fill-opacity:0.815029;fill-rule:nonzero;stroke:none;stroke-width:10;stroke-linecap:square;stroke-linejoin:bevel;stroke-dasharray:10, 10;stroke-dashoffset:0;stroke-opacity:0.763006;paint-order:fill markers stroke"
         d="m 62.046584,1361.7375 v 124.0938 H 1041.0055 v -124.0938 z m 301.767586,14.1172 c 8.07499,0 14.81851,3.4965 20.23047,10.4902 5.2831,6.791 7.92578,15.0529 7.92578,24.7832 0,3.7503 -1.37607,6.2585 -4.125,7.5254 -1.84694,0.8109 -15.14047,2.3052 -39.88086,4.4844 0.55838,4.4598 2.64203,8.2602 6.25,11.4023 3.43617,2.9901 7.13044,4.4864 11.08203,4.4864 6.78643,0 13.01392,-2.5847 18.6836,-7.7539 l 2.0625,-1.9766 c 0.34361,0 0.55862,0.051 0.64453,0.1523 0.12885,0.1014 0.94394,1.8742 2.44726,5.3204 1.50332,3.3955 2.25586,5.2212 2.25586,5.4746 0,0.304 -0.34402,0.8865 -1.03125,1.748 -6.31395,7.906 -14.41009,11.8594 -24.28906,11.8594 -9.96488,0 -17.91246,-3.4985 -23.83984,-10.4922 -5.92739,-7.0444 -8.89063,-16.4201 -8.89063,-28.1269 0,-10.4399 2.83423,-19.5352 8.50391,-27.2891 5.97033,-8.058 13.29438,-12.0879 21.9707,-12.0879 z m 445.19922,0 c 8.07499,0 14.81851,3.4965 20.23047,10.4902 5.2831,6.791 7.92383,15.0529 7.92383,24.7832 0,3.7503 -1.37412,6.2585 -4.12305,7.5254 -1.84694,0.8109 -15.14047,2.3052 -39.88086,4.4844 0.55838,4.4598 2.64203,8.2602 6.25,11.4023 3.43616,2.9901 7.12849,4.4864 11.08008,4.4864 6.78642,0 13.01587,-2.5847 18.68554,-7.7539 l 2.06055,-1.9766 c 0.34362,0 0.55863,0.051 0.64453,0.1523 0.12886,0.1014 0.9459,1.8742 2.44922,5.3204 1.50332,3.3955 2.25391,5.2212 2.25391,5.4746 0,0.304 -0.34207,0.8865 -1.0293,1.748 -6.31395,7.906 -14.41204,11.8594 -24.29102,11.8594 -9.96487,0 -17.9105,-3.4985 -23.83789,-10.4922 -5.92738,-7.0444 -8.89062,-16.4201 -8.89062,-28.1269 0,-10.4399 2.83423,-19.5352 8.50391,-27.2891 5.97033,-8.058 13.29438,-12.0879 21.9707,-12.0879 z m -236.83789,0.1523 c 0.42952,0 2.74773,0.4805 6.95703,1.4434 4.2093,0.9122 6.50796,1.4711 6.89453,1.6738 0.60133,0.2534 0.90234,0.9123 0.90234,1.9766 0,6.0815 -0.043,15.2277 -0.1289,27.4414 -0.0859,12.163 -0.12891,21.2857 -0.12891,27.3672 0,12.0616 -2.19115,20.9568 -6.57226,26.6836 -4.59588,6.0815 -11.93947,9.1211 -22.03321,9.1211 -9.75012,0 -17.63319,-2.1787 -23.64648,-6.5371 -0.94495,-0.7095 -1.41602,-1.3175 -1.41602,-1.8243 0,0.5575 0.64308,-3.1939 1.93164,-11.2519 0.12886,-0.8616 0.42987,-1.291 0.90235,-1.291 0.21476,0 0.49427,0.1255 0.83789,0.3789 6.44281,4.3584 12.90681,6.539 19.39258,6.539 4.25225,0 7.77452,-1.1158 10.5664,-3.3457 3.22141,-2.5339 4.83203,-6.2089 4.83203,-11.0234 0,-1.0643 -0.086,-3.445 -0.25781,-7.1445 -4.76768,6.8416 -10.82317,10.2617 -18.16797,10.2617 -7.94613,0 -14.47659,-3.3691 -19.58789,-10.1094 -4.89653,-6.4869 -7.34375,-14.4703 -7.34375,-23.9472 0,-9.6291 2.36121,-17.8125 7.08594,-24.5528 5.02539,-7.1964 11.55585,-10.7949 19.58789,-10.7949 7.08709,0 12.71256,3.2181 16.87891,9.6543 0.68723,1.0643 1.18175,1.5957 1.48242,1.5957 0.34361,0 0.51562,-0.455 0.51562,-1.3672 0,-0.6588 -0.043,-1.6982 -0.1289,-3.1172 -0.0859,-1.4697 -0.12891,-2.56 -0.12891,-3.2695 0,-3.0408 0.25801,-4.5606 0.77344,-4.5606 z m 53.53906,0.4551 c 6.57167,0 12.30659,2.6866 17.20313,8.0586 0.73018,1.0136 1.86778,2.4844 3.41406,4.4102 0.12885,0.152 0.25786,0.2265 0.38672,0.2265 0.25771,0 0.62323,-1.5962 1.0957,-4.789 0.47247,-3.1928 1.07255,-4.7891 1.80273,-4.7891 1.15971,0 3.32936,0.3804 6.50782,1.1406 3.52207,0.9123 5.2832,1.7241 5.2832,2.4336 0,0.2027 -0.0645,0.6577 -0.19336,1.3672 -1.67513,11.6055 -2.51172,21.6146 -2.51172,30.0274 0,0.5068 0.53557,11.8847 1.60938,34.1328 l 0.0644,1.0644 c 0.043,1.4697 -0.53562,2.2051 -1.73828,2.2051 -1.15971,0 -2.94234,0.151 -5.34766,0.4551 -2.36236,0.3547 -4.1235,0.5332 -5.2832,0.5332 -0.81609,0 -1.43962,-1.7747 -1.86914,-5.3223 -0.42952,-3.5475 -0.83804,-5.3222 -1.22461,-5.3222 -0.25771,0 -1.41682,0.9883 -3.47852,2.9648 -2.53417,2.4326 -4.89733,4.2838 -7.08789,5.5508 -3.39321,2.0271 -6.78647,3.041 -10.17968,3.041 -8.33271,0 -15.35379,-3.928 -21.06641,-11.7832 -5.41196,-7.5005 -8.11914,-16.2428 -8.11914,-26.2266 0,-11.2507 2.72868,-20.5499 8.18359,-27.8984 5.71263,-7.6525 13.22823,-11.4805 22.54883,-11.4805 z m 82.91992,0.9121 c 9.87898,0 16.17097,4.7653 18.87695,14.293 2.66303,-4.0543 5.97029,-7.3998 9.92188,-10.0352 4.2093,-2.838 8.37465,-4.2578 12.49805,-4.2578 7.94613,0 13.44454,2.7376 16.49414,8.211 2.19055,4.0543 3.28711,10.4649 3.28711,19.2324 0,1.6724 -0.043,4.257 -0.12891,7.7539 -0.0859,3.4969 -0.12891,6.0815 -0.12891,7.7539 0,3.1928 0.0645,8.0071 0.19336,14.4434 0.12886,6.3855 0.19336,11.1744 0.19336,14.3672 0,1.9764 -0.49452,2.9648 -1.48242,2.9648 -0.64428,0 -1.63333,-0.075 -2.96484,-0.2266 -1.28856,-0.152 -2.27566,-0.2285 -2.96289,-0.2285 -0.73019,0 -1.82479,0.051 -3.28516,0.1524 -1.46037,0.1013 -2.55692,0.1523 -3.28711,0.1523 -0.90199,0 -1.35156,-1.1923 -1.35156,-3.5742 0,-2.3313 0.0645,-5.8023 0.19336,-10.4141 0.17181,-4.6625 0.25586,-8.159 0.25586,-10.4902 0,-12.8218 -0.0411,-19.9678 -0.12696,-21.4375 -0.34361,-5.22 -1.24666,-8.8185 -2.70703,-10.7949 -1.67513,-2.1286 -4.65987,-3.1934 -8.95507,-3.1934 -2.70599,0 -5.75523,1.5218 -9.14844,4.5625 -3.52207,3.1928 -5.34771,6.3344 -5.47656,9.4258 -0.17181,3.953 -0.25782,11.1754 -0.25782,21.666 0,2.4833 0.086,6.2073 0.25782,11.1738 0.1718,4.9666 0.25781,8.6906 0.25781,11.1739 0,1.3683 -0.38702,2.0527 -1.16016,2.0527 -0.77314,0 -1.91074,-0.075 -3.41406,-0.2266 -1.46037,-0.152 -2.57843,-0.2285 -3.35156,-0.2285 -0.68724,0 -1.69583,0.051 -3.02735,0.1524 -1.33151,0.1013 -2.34206,0.1523 -3.02929,0.1523 -0.85905,0 -1.28711,-0.7354 -1.28711,-2.2051 0,-2.4326 0.0645,-6.082 0.19336,-10.9472 0.12885,-4.9159 0.19336,-8.5909 0.19336,-11.0235 v -18.3203 c 0,-5.7267 -0.58053,-9.8057 -1.74024,-12.2383 -1.63218,-3.4461 -4.74593,-5.1699 -9.3418,-5.1699 -2.70598,0 -5.92723,1.3433 -9.66406,4.0293 -4.1234,2.9394 -6.18555,5.9045 -6.18555,8.8945 v 22.1973 c 0,2.534 0.0215,6.3089 0.0645,11.3262 0.0429,5.0172 0.0644,8.7687 0.0644,11.2519 0,1.4697 -0.49452,2.2051 -1.48242,2.2051 h -11.98241 c -0.85904,0 -1.28907,-0.6844 -1.28907,-2.0527 0,-4.105 0.0215,-10.2627 0.0645,-18.4727 0.0429,-8.2607 0.0644,-14.4438 0.0644,-18.5488 0,-9.2743 -0.83854,-18.5245 -2.51367,-27.7481 -0.12886,-0.6588 -0.19336,-1.1902 -0.19336,-1.5957 0,-0.6588 0.19351,-1.0392 0.58008,-1.1406 1.58922,-0.2027 3.90939,-0.5831 6.95898,-1.1406 1.41742,-0.5068 3.54407,-1.0637 6.37891,-1.6719 l 0.51562,-0.076 c 0.51543,0 0.9865,1.8003 1.41602,5.3985 0.47247,3.5475 0.88099,5.3203 1.22461,5.3203 l 3.2207,-3.3438 c 2.53417,-2.5846 5.06935,-4.6378 7.60352,-6.1582 3.65092,-2.2298 7.3022,-3.3457 10.95312,-3.3457 z m -403.38476,0.1524 c 8.07498,0 13.59294,2.7631 16.55664,8.2871 2.19055,4.0543 3.28711,10.6159 3.28711,19.6875 0,1.571 -0.043,3.9792 -0.12891,7.2226 -0.043,3.2435 -0.0645,5.6752 -0.0645,7.2969 0,3.3955 0.043,8.4648 0.1289,15.2051 0.0859,6.7403 0.12891,11.8076 0.12891,15.2031 0,1.115 -0.43002,1.6719 -1.28906,1.6719 -1.41742,0 -3.54407,-0.025 -6.37891,-0.076 -2.79188,-0.051 -4.89508,-0.074 -6.3125,-0.074 -0.77314,0 -1.16016,-0.7354 -1.16016,-2.2051 0,-2.4832 0.0645,-6.2602 0.19336,-11.3281 0.12886,-5.0679 0.19336,-8.8684 0.19336,-11.4023 0,-2.0272 -0.0215,-5.0413 -0.0645,-9.045 -0.043,-4.0543 -0.0645,-7.0958 -0.0645,-9.123 0,-5.7774 -0.70954,-9.8564 -2.12696,-12.2383 -1.71808,-2.838 -4.89633,-4.2578 -9.53515,-4.2578 -2.14761,0 -5.13235,1.4198 -8.95508,4.2578 -4.03749,2.9901 -6.05664,5.6492 -6.05664,7.9805 v 45.6113 c 0,1.267 -0.40852,1.9004 -1.22461,1.9004 -1.37447,0 -3.43662,-0.025 -6.18555,-0.076 -2.74893,-0.051 -4.80913,-0.074 -6.18359,-0.074 -0.90199,0 -1.35352,-0.5844 -1.35352,-1.75 0,-4.0036 0.043,-10.0083 0.12891,-18.0156 0.12886,-8.0073 0.19336,-14.0375 0.19336,-18.0918 0,-10.7947 -0.96755,-20.7547 -2.90039,-29.877 -0.12886,-0.4561 -0.19141,-0.7855 -0.19141,-0.9883 0,-0.5067 0.27756,-0.8597 0.83594,-1.0625 0.30066,-0.051 2.74983,-0.5075 7.3457,-1.3691 4.63883,-0.9122 7.06454,-1.3691 7.2793,-1.3691 0.25771,0 0.42972,0.4059 0.51562,1.2168 0.21476,3.1421 0.70929,6.3091 1.48243,9.5019 2.2335,-2.0778 5.17524,-4.6625 8.82617,-7.7539 4.50996,-3.2435 8.87077,-4.8652 13.08008,-4.8652 z m 131.49804,1.75 h 12.30469 c 0.68723,0 1.03125,0.6569 1.03125,1.9746 0,1.6217 -0.0645,4.0808 -0.19336,7.375 -0.12885,3.2434 -0.19336,5.6751 -0.19336,7.2969 0,8.9702 0.12901,14.1649 0.38672,15.5839 0.25771,1.3684 2.27686,5.3473 6.05664,11.9356 3.77978,6.5376 5.94748,9.8066 6.50586,9.8066 0.12886,0 0.51588,-0.6079 1.16016,-1.8242 5.45491,-9.781 8.3986,-16.3191 8.82812,-19.6133 0.38657,-2.7366 0.57813,-7.3745 0.57813,-13.9121 0,-1.9258 -0.12901,-4.6869 -0.38672,-8.2851 -0.25771,-3.6489 -0.38477,-6.2591 -0.38477,-7.8301 0,-0.7602 0.42807,-1.1406 1.28711,-1.1406 1.28856,0 3.20021,-0.051 5.73438,-0.1524 2.53417,-0.1013 4.44581,-0.1523 5.73437,-0.1523 0.94495,0 1.52548,0.5079 1.74024,1.5215 0.34361,1.9764 0.51562,7.1712 0.51562,15.5839 0,9.5277 -0.45152,15.5069 -1.35351,17.9395 -1.20266,3.3448 -4.38091,10.0104 -9.53516,19.9941 -5.58377,10.7947 -8.95553,16.3679 -10.11524,16.7227 -0.34361,0.1014 -2.06174,0.1523 -5.15429,0.1523 -2.10465,0 -3.33021,-0.051 -3.67383,-0.1523 -1.33151,-0.4054 -6.44095,-9.1222 -15.33203,-26.1504 -2.44827,4.7638 -4.91894,9.5546 -7.41016,14.3691 -4.03749,7.5005 -6.61371,11.4265 -7.73047,11.7813 -0.34361,0.1014 -1.76268,0.1523 -4.2539,0.1523 -2.53417,0 -3.97279,-0.051 -4.31641,-0.1523 -1.33151,-0.3548 -4.70327,-5.879 -10.11523,-16.5723 -5.1113,-10.0851 -8.20355,-16.7997 -9.27735,-20.1445 -0.98789,-3.0407 -1.48242,-9.0199 -1.48242,-17.9395 0,-7.4498 0.21501,-12.5426 0.64453,-15.2793 0.21476,-1.1149 0.75229,-1.6738 1.61133,-1.6738 1.28856,0 3.2217,0.051 5.79883,0.1524 2.57712,0.1013 4.51026,0.1523 5.79883,0.1523 0.81609,0 1.22265,0.7864 1.22265,2.3574 0,1.115 -0.043,2.8113 -0.1289,5.0918 -0.0859,2.2299 -0.12891,3.9027 -0.12891,5.0176 0,8.8182 0.21501,15.0523 0.64453,18.7012 0.38657,3.1928 3.75833,9.8818 10.11524,20.0683 0.77313,1.2163 1.22466,1.8243 1.35351,1.8243 0.12886,0 0.51588,-0.557 1.16016,-1.6719 5.58377,-9.5784 8.76202,-16.1164 9.53515,-19.6133 0.51543,-2.4326 0.77344,-7.8803 0.77344,-16.3438 0,-1.723 -0.086,-4.2822 -0.25781,-7.6777 -0.17181,-3.3955 -0.25781,-5.9291 -0.25781,-7.6016 0,-1.1149 0.38702,-1.6718 1.16015,-1.6718 z m -73.83593,11.1738 c -3.95159,0 -7.47386,1.8748 -10.56641,5.625 -3.0496,3.7503 -4.57422,7.9567 -4.57422,12.6191 0,1.0643 0.77404,1.5977 2.32031,1.5977 6.35691,0 13.95852,-0.7609 22.80664,-2.2812 2.49122,-0.4055 3.73829,-0.9134 3.73828,-1.5215 0,-4.2064 -1.41907,-7.9304 -4.2539,-11.1739 -2.79189,-3.2434 -5.94864,-4.8652 -9.4707,-4.8652 z m 445.19921,0 c -3.95159,0 -7.47385,1.8748 -10.5664,5.625 -3.0496,3.7503 -4.57422,7.9567 -4.57422,12.6191 0,1.0643 0.77208,1.5977 2.31836,1.5977 6.3569,0 13.96047,-0.7609 22.80859,-2.2812 2.49122,-0.4055 3.73633,-0.9134 3.73633,-1.5215 0,-4.2064 -1.41712,-7.9304 -4.25195,-11.1739 -2.79189,-3.2434 -5.94864,-4.8652 -9.47071,-4.8652 z m -251.91406,1.0645 c -4.63882,0 -8.3976,2.1787 -11.27539,6.5371 -2.62007,3.9529 -3.92969,8.7418 -3.92969,14.3672 0,5.524 1.33112,10.2893 3.99414,14.2929 2.87779,4.3584 6.61507,6.5371 11.21094,6.5371 4.55292,0 8.2902,-2.1787 11.21094,-6.5371 2.70598,-4.0036 4.05859,-8.7689 4.05859,-14.2929 0,-5.6761 -1.30961,-10.4904 -3.92968,-14.4434 -2.87779,-4.3077 -6.65807,-6.4609 -11.33985,-6.4609 z m 71.38672,0.1523 c -5.15425,0 -9.45055,2.3807 -12.88672,7.1445 -3.30731,4.5611 -4.96094,9.9344 -4.96094,16.1172 0,6.1322 1.65363,11.4525 4.96094,15.9629 3.43617,4.7132 7.73247,7.0703 12.88672,7.0703 5.02539,0 9.23374,-2.4081 12.62695,-7.2226 3.17846,-4.5105 4.76758,-9.7798 4.76758,-15.8106 0,-6.2335 -1.56762,-11.5812 -4.70312,-16.041 -3.30731,-4.8145 -7.53716,-7.2207 -12.69141,-7.2207 z" />
      <path
         id="rect19"
         style="fill:#ececec;fill-opacity:0.815029;fill-rule:nonzero;stroke:none;stroke-width:10;stroke-linecap:square;stroke-linejoin:bevel;stroke-dasharray:10, 10;stroke-dashoffset:0;stroke-opacity:0.763006;paint-order:fill markers stroke"
         d="M 58.599508,1662.3262 V 1786.42 H 1037.5585 v -124.0938 z m 494.693362,4.2696 c 2.2376,0 4.15562,0.8265 5.75391,2.4765 1.63824,1.6501 2.45898,3.7703 2.45898,6.3633 0,5.7989 -2.73877,8.6992 -8.21289,8.6992 -5.55403,0 -8.33008,-2.9003 -8.33008,-8.6992 0,-2.593 0.85802,-4.7383 2.57617,-6.4355 1.59829,-1.603 3.51631,-2.4043 5.75391,-2.4043 z m -45.73047,2.334 c 0.35962,0 4.11526,0.7318 11.26758,2.1933 0.91901,0.1415 1.37891,0.6589 1.37891,1.5547 0,2.0744 -0.14023,5.1872 -0.41993,9.3359 -0.23974,4.1488 -0.35937,7.2596 -0.35937,9.334 0,1.3672 0.5403,2.0508 1.61914,2.0508 h 14.38477 c 0.67927,0 1.01757,0.2839 1.01757,0.8496 0,0.5658 -0.0784,1.4849 -0.23828,2.7578 -0.11987,1.2258 -0.17969,2.145 -0.17968,2.7578 0,0.7072 0.0186,1.7905 0.0586,3.252 0.04,1.4615 0.0606,2.5467 0.0606,3.2539 0,0.8958 -0.55894,1.3438 -1.67774,1.3438 -1.59828,0 -4.01543,-0.1178 -7.25195,-0.3536 -3.23652,-0.2828 -5.65563,-0.4238 -7.25391,-0.4238 -0.31965,0 -0.55892,1.342 -0.71875,4.0293 -0.19978,3.3473 -0.29883,8.0396 -0.29883,14.0742 v 10.5371 c 0,4.0545 0.31967,6.8834 0.95899,8.4864 0.95897,2.4515 2.93681,3.6757 5.93359,3.6757 1.23867,0 3.0557,-0.305 5.45313,-0.9179 2.39742,-0.6601 4.17523,-0.9903 5.33398,-0.9903 0.47949,0 0.7207,0.4229 0.7207,1.2715 0,1.0372 -0.0804,2.4526 -0.24023,4.2442 -0.19979,2.2158 -0.31942,3.6544 -0.35938,4.3144 -0.0399,0.8486 -0.0998,1.3661 -0.17968,1.5547 -0.15983,0.33 -0.53932,0.6602 -1.13867,0.9902 -3.27648,1.8387 -8.4324,2.7579 -15.46485,2.7579 -9.34995,0 -14.02344,-4.9974 -14.02344,-14.9922 0,-4.0074 0.0785,-10.0185 0.23829,-18.0332 0.15982,-8.0619 0.24023,-14.0962 0.24023,-18.1036 0,-1.9329 -0.81879,-2.9698 -2.45703,-3.1113 -1.47841,0 -2.93655,-0.023 -4.375,-0.07 -0.8391,-0.2357 -1.25977,-2.1686 -1.25977,-5.7988 0,-1.3672 0.0804,-2.8058 0.24024,-4.3145 0.11987,-1.1315 0.75921,-1.815 1.91797,-2.0508 0.99892,0 1.97853,-0.023 2.9375,-0.07 1.83802,-0.094 2.75586,-1.0617 2.75586,-2.9004 0,-1.8858 -0.0598,-4.761 -0.17969,-8.6269 -0.0799,-3.8659 -0.11914,-6.7663 -0.11914,-8.6992 0,-3.4416 0.55893,-5.1621 1.67773,-5.1621 z m -110.28125,21.0039 c 8.23116,0 15.14429,3.5356 20.73828,10.6074 5.51408,6.8832 8.27149,15.2289 8.27149,25.0351 0,9.8534 -2.73877,18.2686 -8.21289,25.2461 -5.59399,7.2133 -12.52576,10.8184 -20.79688,10.8184 -8.31107,0 -15.26343,-3.582 -20.85742,-10.748 -5.47412,-6.9304 -8.21094,-15.3225 -8.21094,-25.1758 0,-9.8534 2.73682,-18.2455 8.21094,-25.1758 5.63395,-7.0718 12.58631,-10.6074 20.85742,-10.6074 z m 200.96485,0 c 8.23115,0 15.14233,3.5356 20.73632,10.6074 5.51408,6.8832 8.27149,15.2289 8.27149,25.0351 0,9.8534 -2.73682,18.2686 -8.21094,25.2461 -5.59399,7.2133 -12.52576,10.8184 -20.79687,10.8184 -8.31108,0 -15.26344,-3.582 -20.85743,-10.748 -5.47412,-6.9304 -8.21093,-15.3225 -8.21093,-25.1758 0,-9.8534 2.73681,-18.2455 8.21093,-25.1758 5.63395,-7.0718 12.58631,-10.6074 20.85743,-10.6074 z m -131.43946,0.2832 c 7.9115,0 14.58342,3.6534 20.01758,10.9609 5.23438,7.0247 7.85156,15.2989 7.85156,24.8223 0,9.5233 -2.55541,17.7976 -7.66992,24.8222 -5.35425,7.4019 -12.00753,11.1016 -19.95898,11.1016 -4.95468,0 -9.28985,-1.8151 -13.00586,-5.4453 -1.6782,-1.8387 -3.35696,-3.7001 -5.03516,-5.5859 -0.23974,0.1414 -0.40055,0.5179 -0.48047,1.1308 -0.04,0.2829 -0.0586,2.9225 -0.0586,7.9199 l -0.0606,19.9434 c 0,1.5086 -0.45989,2.2637 -1.3789,2.2637 -6.15339,0 -9.78941,-0.095 -10.90821,-0.2832 -0.91901,-0.1415 -1.3789,-0.7555 -1.3789,-1.8399 0,-6.0346 0.0412,-15.0851 0.12109,-27.1543 0.0799,-12.0692 0.11914,-21.1216 0.11914,-27.1562 0,-11.0792 -0.59816,-21.4756 -1.79687,-31.1875 -0.0799,-0.5658 -0.1211,-0.9423 -0.1211,-1.1309 0,-0.5186 0.20004,-0.8488 0.59961,-0.9902 1.51837,-0.094 3.73548,-0.3531 6.65234,-0.7774 3.9158,-0.8486 6.11427,-1.2734 6.59376,-1.2734 0.67927,0 1.11857,1.4154 1.31835,4.2441 0.11988,1.8858 0.21892,3.7473 0.29883,5.586 0,0.3771 0.12159,0.7537 0.36133,1.1308 0.2797,-0.1885 0.59937,-0.5187 0.95899,-0.9902 5.59399,-6.7418 11.24707,-10.1113 16.96093,-10.1113 z m 251.91016,0 c 0.5594,0 0.95752,0.3051 1.19726,0.9179 0.2797,0.6129 0.78078,2.5227 1.5,5.7286 0.75919,3.2058 1.13868,5.1388 1.13868,5.7988 0,0.5186 -0.37949,0.8488 -1.13868,0.9902 -2.55725,0.4243 -5.13521,0.826 -7.73242,1.2031 -3.07669,0.9901 -4.61523,2.9693 -4.61523,5.9395 0,2.1215 1.61894,4.2669 4.85547,6.4355 4.79485,3.1588 7.83075,5.4451 9.10937,6.8594 3.27648,3.6774 4.91602,8.3928 4.91602,14.1445 0,7.0247 -2.37792,12.6574 -7.13282,16.9004 -4.31536,3.866 -9.57032,5.7989 -15.76367,5.7989 -2.39742,0 -3.75651,-0.07 -4.07617,-0.211 -0.67927,-0.3771 -1.01758,-1.5319 -1.01758,-3.4648 0,-1.0372 -0.11963,-2.5936 -0.35937,-4.668 -0.19979,-2.0744 -0.30078,-3.6076 -0.30078,-4.5976 0,-0.6129 0.35889,-1.0126 1.07812,-1.2012 0.51944,-0.1414 1.25978,-0.1414 2.21875,0 1.23867,0.1414 1.83879,0.2109 1.79883,0.2109 7.55189,0 11.32617,-2.7342 11.32617,-8.2031 0,-2.593 -1.65817,-4.9739 -4.97461,-7.1426 -5.3942,-3.4887 -8.48992,-5.6321 -9.28906,-6.4336 -3.31644,-3.3473 -4.97461,-7.7326 -4.97461,-13.1543 0,-7.0718 2.25634,-12.5886 6.77148,-16.5488 4.07563,-3.5359 9.23155,-5.3027 15.46485,-5.3027 z m -48.72852,0.5644 c 7.51193,0 12.64726,2.5702 15.4043,7.709 2.03781,3.7716 3.05664,9.8774 3.05664,18.3164 0,1.4615 -0.0412,3.7015 -0.12109,6.7188 -0.04,3.0173 -0.0586,5.2784 -0.0586,6.7871 0,3.1587 0.0392,7.8742 0.11914,14.1445 0.0799,6.2703 0.11914,10.9858 0.11914,14.1445 0,1.0372 -0.39812,1.5547 -1.19726,1.5547 -1.31858,0 -3.29643,-0.023 -5.9336,-0.07 -2.5972,-0.047 -4.55641,-0.07 -5.875,-0.07 -0.71922,0 -1.07812,-0.6836 -1.07812,-2.0508 0,-2.3101 0.0598,-5.8226 0.17969,-10.5371 0.11987,-4.7145 0.17968,-8.2501 0.17969,-10.6074 0,-1.8858 -0.0206,-4.6916 -0.0606,-8.416 -0.04,-3.7717 -0.0586,-6.6005 -0.0586,-8.4864 0,-5.3745 -0.65993,-9.1689 -1.97851,-11.3847 -1.59828,-2.6402 -4.55573,-3.961 -8.8711,-3.961 -1.99785,0 -4.77389,1.3208 -8.33007,3.961 -3.75597,2.7816 -5.63477,5.2551 -5.63477,7.4238 v 42.4316 c 0,1.1787 -0.37949,1.7676 -1.13867,1.7676 -1.27863,0 -3.19665,-0.023 -5.75391,-0.07 -2.55725,-0.047 -4.47528,-0.07 -5.7539,-0.07 -0.8391,0 -1.25782,-0.5426 -1.25782,-1.627 0,-3.7244 0.0392,-9.3108 0.11914,-16.7597 0.11988,-7.449 0.17969,-13.0604 0.17969,-16.832 0,-10.042 -0.89919,-19.3049 -2.69726,-27.7911 -0.11987,-0.4243 -0.17969,-0.7313 -0.17969,-0.9199 0,-0.4714 0.25985,-0.8016 0.7793,-0.9902 0.2797,-0.047 2.55857,-0.472 6.83398,-1.2735 4.31536,-0.8486 6.5717,-1.2714 6.77148,-1.2714 0.23975,0 0.40056,0.3765 0.48047,1.1308 0.19979,2.923 0.65968,5.8697 1.37891,8.8399 2.07777,-1.933 4.81459,-4.3371 8.21094,-7.2129 4.19549,-3.0173 8.25022,-4.5274 12.16601,-4.5274 z m -123.4082,2.4766 c 0.71923,0 1.81846,0.1178 3.29687,0.3535 1.51837,0.2357 2.65684,0.3535 3.41602,0.3535 0.75919,0 1.87901,-0.1178 3.35742,-0.3535 1.51837,-0.2357 2.65683,-0.3535 3.41602,-0.3535 0.67927,0 1.01953,0.448 1.01953,1.3437 0,3.6302 -0.20004,9.1219 -0.59961,16.4766 -0.35961,7.3075 -0.53906,12.7992 -0.53906,16.4766 0,3.4416 0.0598,8.605 0.17968,15.4882 0.11988,6.8361 0.17969,11.9513 0.17969,15.3457 0,0.9901 -0.36085,1.4844 -1.08008,1.4844 h -11.6875 c -0.83909,0 -1.25781,-0.9655 -1.25781,-2.8984 0,-3.253 0.0598,-8.1326 0.17969,-14.6387 0.15983,-6.5532 0.24023,-11.4811 0.24023,-14.7812 0,-3.6774 -0.23926,-9.1922 -0.71875,-16.5469 -0.43952,-7.3547 -0.66015,-12.8715 -0.66015,-16.5488 0,-0.8015 0.41871,-1.2012 1.25781,-1.2012 z m -82.23047,10.6777 c -4.63502,0 -8.43185,2.3578 -11.38867,7.0723 -2.71708,4.2431 -4.07422,9.1922 -4.07422,14.8496 0,5.7517 1.39832,10.7491 4.19531,14.9922 3.0767,4.5731 6.99121,6.8613 11.7461,6.8613 4.5551,0 8.39116,-2.3809 11.50781,-7.1426 2.87691,-4.4316 4.31641,-9.3827 4.31641,-14.8515 0,-5.6575 -1.49932,-10.6317 -4.4961,-14.9219 -3.15661,-4.5731 -7.0917,-6.8594 -11.80664,-6.8594 z m -67.06836,0.6367 c -4.79485,0 -8.77112,2.1222 -11.92773,6.3653 -2.99678,4.1016 -4.49414,9.0275 -4.49414,14.7793 0,5.6574 1.51795,10.5602 4.55468,14.709 3.19657,4.3845 7.15226,6.5761 11.86719,6.5761 4.75489,0 8.71058,-2.1916 11.86719,-6.5761 2.99678,-4.1488 4.49609,-9.0516 4.49609,-14.709 0,-5.7518 -1.49931,-10.6545 -4.49609,-14.709 -3.11665,-4.2902 -7.07234,-6.4356 -11.86719,-6.4356 z m 200.96485,0 c -4.79485,0 -8.77113,2.1222 -11.92774,6.3653 -2.99678,4.1016 -4.49609,9.0275 -4.49609,14.7793 0,5.6574 1.5199,10.5602 4.55664,14.709 3.19656,4.3845 7.15225,6.5761 11.86719,6.5761 4.75489,0 8.71057,-2.1916 11.86718,-6.5761 2.99678,-4.1488 4.49414,-9.0516 4.49414,-14.709 0,-5.7518 -1.49736,-10.6545 -4.49414,-14.709 -3.11665,-4.2902 -7.07234,-6.4356 -11.86718,-6.4356 z" />
      <path
         id="rect20"
         style="fill:#ececec;fill-opacity:0.815029;fill-rule:nonzero;stroke:none;stroke-width:10;stroke-linecap:square;stroke-linejoin:bevel;stroke-dasharray:10, 10;stroke-dashoffset:0;stroke-opacity:0.763006;paint-order:fill markers stroke"
         d="m 58.599546,1513.7553 v 124.0938 H 1037.5585 v -124.0938 z m 329.503914,1.9531 c 2.40531,0 4.46746,0.8864 6.18554,2.6602 1.76104,1.7738 2.64063,4.0544 2.64063,6.8418 0,6.2335 -2.94174,9.3515 -8.82617,9.3515 -5.97034,0 -8.95508,-3.118 -8.95508,-9.3515 0,-2.7874 0.92259,-5.0916 2.76953,-6.916 1.71808,-1.7231 3.78023,-2.586 6.18555,-2.586 z m -49.15821,2.5098 c 0.38657,0 4.42487,0.7844 12.11329,2.3555 0.98789,0.152 1.48046,0.7089 1.48046,1.6718 0,2.2299 -0.1505,5.5754 -0.45117,10.0352 -0.25771,4.4598 -0.38672,7.8053 -0.38672,10.0352 0,1.4696 0.58053,2.205 1.74024,2.205 h 15.46289 c 0.73018,0 1.0957,0.304 1.0957,0.9121 0,0.6082 -0.086,1.5965 -0.25781,2.9649 -0.12886,1.3176 -0.19336,2.304 -0.19336,2.9629 0,0.7602 0.0215,1.927 0.0645,3.498 0.043,1.5711 0.0645,2.7359 0.0645,3.4961 0,0.9629 -0.60203,1.4453 -1.80469,1.4453 -1.71808,0 -4.31581,-0.1274 -7.79492,-0.3808 -3.47912,-0.3041 -6.0788,-0.4551 -7.79688,-0.4551 -0.34361,0 -0.60163,1.4433 -0.77344,4.332 -0.21476,3.5982 -0.32226,8.642 -0.32226,15.1289 v 11.3262 c 0,4.3584 0.34402,7.398 1.03125,9.1211 1.03085,2.6353 3.1575,3.9531 6.37891,3.9531 1.33151,0 3.28615,-0.3294 5.86328,-0.9883 2.57712,-0.7095 4.48876,-1.0644 5.73437,-1.0644 0.51543,0 0.77344,0.4569 0.77344,1.3691 0,1.115 -0.086,2.6348 -0.25781,4.5606 -0.21476,2.3819 -0.34377,3.9291 -0.38672,4.6386 -0.043,0.9123 -0.10746,1.4692 -0.19336,1.6719 -0.17181,0.3548 -0.58033,0.7097 -1.22461,1.0645 -3.52207,1.9765 -9.06348,2.9648 -16.62305,2.9648 -10.05078,0 -15.07617,-5.3732 -15.07617,-16.1172 0,-4.3077 0.086,-10.7693 0.25781,-19.3847 0.17181,-8.6662 0.25782,-15.1533 0.25782,-19.461 0,-2.0778 -0.8796,-3.1917 -2.64063,-3.3437 -1.58923,0 -3.15685,-0.025 -4.70313,-0.076 -0.90199,-0.2534 -1.35351,-2.3321 -1.35351,-6.2344 0,-1.4697 0.086,-3.015 0.25781,-4.6367 0.12886,-1.2163 0.81494,-1.9517 2.06055,-2.2051 1.0738,0 2.12735,-0.025 3.1582,-0.076 1.9758,-0.1014 2.96289,-1.1388 2.96289,-3.1153 0,-2.0271 -0.0645,-5.1197 -0.19336,-9.2754 -0.0859,-4.1556 -0.1289,-7.2717 -0.1289,-9.3496 0,-3.6995 0.60203,-5.5488 1.80468,-5.5488 z m 238.51368,21.8164 c 8.07498,0 14.8185,3.4965 20.23046,10.4902 5.28311,6.791 7.92383,15.0529 7.92383,24.7832 0,3.7503 -1.37411,6.2585 -4.12304,7.5254 -1.84694,0.8109 -15.14047,2.3052 -39.88086,4.4844 0.55837,4.4598 2.64202,8.2622 6.25,11.4043 3.43616,2.9901 7.12849,4.4844 11.08007,4.4844 6.78643,0 13.01588,-2.5847 18.68555,-7.7539 l 2.06055,-1.9766 c 0.34362,0 0.55863,0.051 0.64453,0.1524 0.12886,0.1013 0.9459,1.8741 2.44922,5.3203 1.50332,3.3955 2.2539,5.2212 2.25391,5.4746 -10e-6,0.304 -0.34402,0.8865 -1.03126,1.748 -6.31395,7.906 -14.41008,11.8594 -24.28906,11.8594 -9.96488,0 -17.9105,-3.4985 -23.83789,-10.4922 -5.92738,-7.0444 -8.89062,-16.4181 -8.89062,-28.125 0,-10.4399 2.83423,-19.5371 8.5039,-27.291 5.97034,-8.058 13.29439,-12.0879 21.97071,-12.0879 z m 349.00586,0 c 8.07498,0 14.8185,3.4965 20.23046,10.4902 5.28311,6.791 7.92579,15.0529 7.92579,24.7832 0,3.7503 -1.37412,6.2585 -4.12305,7.5254 -1.84694,0.8109 -15.14047,2.3052 -39.88086,4.4844 0.55838,4.4598 2.64007,8.2622 6.24805,11.4043 3.43616,2.9901 7.13044,4.4844 11.08203,4.4844 6.78642,0 13.01392,-2.5847 18.68359,-7.7539 l 2.0625,-1.9766 c 0.34362,0 0.55863,0.051 0.64453,0.1524 0.12886,0.1013 0.94395,1.8741 2.44727,5.3203 1.50332,3.3955 2.25586,5.2212 2.25586,5.4746 0,0.304 -0.34402,0.8865 -1.03125,1.748 -6.31396,7.906 -14.41009,11.8594 -24.28906,11.8594 -9.96488,0 -17.91051,-3.4985 -23.8379,-10.4922 -5.92738,-7.0444 -8.89257,-16.4181 -8.89257,-28.125 0,-10.4399 2.83618,-19.5371 8.50586,-27.291 5.97033,-8.058 13.29243,-12.0879 21.96875,-12.0879 z m -753.67969,0.1523 c 6.01329,0 11.5117,1.7983 16.49414,5.3965 0.85904,0.6082 1.28711,1.1416 1.28711,1.5977 0,1.1149 -0.49257,3.5976 -1.48047,7.4492 -0.9879,3.8516 -1.67593,5.7773 -2.0625,5.7773 -1.93284,-1.0135 -3.88749,-2.0274 -5.86328,-3.041 -1.93284,-1.0135 -4.0595,-1.5195 -6.37891,-1.5195 -5.2831,0 -9.68496,2.3062 -13.20703,6.918 -3.52207,4.6117 -5.2832,10.0595 -5.2832,16.3436 0,6.183 1.76113,11.5287 5.2832,16.039 3.60797,4.6623 8.00983,6.9939 13.20703,6.9939 2.87779,0 5.71398,-0.8354 8.50586,-2.5078 2.79189,-1.6724 4.01549,-2.5098 3.67188,-2.5098 0.55837,0 1.1819,2.1297 1.86914,6.3868 0.64428,3.8516 0.96679,6.5107 0.96679,7.9804 0,1.5711 -2.51367,3.1183 -7.53906,4.6387 -4.2093,1.267 -7.32305,1.9004 -9.3418,1.9004 -8.84812,0 -16.32268,-3.9025 -22.42187,-11.707 -5.97034,-7.6019 -8.95508,-16.6736 -8.95508,-27.2149 0,-10.7439 2.92024,-19.8667 8.76172,-27.3672 6.01329,-7.7032 13.50935,-11.5547 22.48633,-11.5543 z m 516.84179,0 c 0.42953,0 2.74969,0.4805 6.95899,1.4434 4.2093,0.9122 6.50796,1.4711 6.89453,1.6738 0.60133,0.2534 0.90039,0.9123 0.90039,1.9766 0,6.0815 -0.043,15.2277 -0.12891,27.4414 -0.0859,12.163 -0.1289,21.2857 -0.1289,27.3672 0,12.0616 -2.1892,20.9568 -6.57031,26.6836 -4.59587,6.0815 -11.94142,9.1211 -22.03516,9.1211 -9.75012,0 -17.63124,-2.1787 -23.64453,-6.5371 -0.94495,-0.7095 -1.41797,-1.3175 -1.41797,-1.8243 0,0.5575 0.64503,-3.1939 1.93359,-11.2519 0.12886,-0.8615 0.42987,-1.291 0.90235,-1.291 0.21476,0 0.49232,0.1255 0.83593,0.3789 6.44281,4.3584 12.90877,6.539 19.39454,6.539 4.25225,10e-5 7.77257,-1.1158 10.56445,-3.3457 3.2214,-2.5339 4.83203,-6.2089 4.83203,-11.0234 0,-1.0643 -0.0841,-3.4449 -0.25586,-7.1445 -4.76768,6.8415 -10.82512,10.2617 -18.16992,10.2617 -7.94613,0 -14.47464,-3.3691 -19.58594,-10.1095 -4.89653,-6.4872 -7.3457,-14.4702 -7.3457,-23.9474 0,-9.6292 2.36316,-17.8125 7.08789,-24.5526 5.02539,-7.1965 11.5539,-10.7952 19.58594,-10.7952 7.08709,0 12.71451,3.2182 16.88086,9.6543 0.68723,1.0643 1.18175,1.5957 1.48242,1.5957 0.34361,0 0.51367,-0.4548 0.51367,-1.3669 0,-0.6587 -0.043,-1.6984 -0.12891,-3.1171 -0.0859,-1.4699 -0.12695,-2.56 -0.12695,-3.2697 0,-3.0407 0.25606,-4.5607 0.77148,-4.5604 z m 53.54102,0.4571 c 6.57167,0 12.30464,2.6846 17.20117,8.0566 0.73019,1.0136 1.86974,2.4844 3.41602,4.4102 0.12885,0.152 0.25786,0.2265 0.38672,0.2265 0.25771,0 0.62127,-1.5962 1.09375,-4.789 0.47247,-3.1928 1.0745,-4.7891 1.80468,-4.7891 1.15971,0 3.32936,0.3805 6.50782,1.1406 3.52207,0.9123 5.2832,1.7241 5.2832,2.4336 0,0.2027 -0.0645,0.6577 -0.19336,1.3672 -1.67513,11.6055 -2.51367,21.6146 -2.51367,30.0274 0,0.5068 0.53753,11.8847 1.61133,34.1328 l 0.0644,1.0644 c 0.043,1.4697 -0.53758,2.2051 -1.74023,2.2051 -1.15971,0 -2.94235,0.151 -5.34766,0.4549 -2.36236,0.3549 -4.1235,0.5334 -5.2832,0.5334 -0.81609,0 -1.43767,-1.7747 -1.86719,-5.3224 -0.42952,-3.5474 -0.83804,-5.3206 -1.22461,-5.3206 -0.25771,0 -1.41682,0.9884 -3.47852,2.9649 -2.53417,2.4325 -4.89733,4.2818 -7.08789,5.5488 -3.39321,2.0271 -6.78647,3.041 -10.17968,3.041 -8.3327,0 -15.35574,-3.9279 -21.06836,-11.7832 -5.41196,-7.5005 -8.11719,-16.2428 -8.11719,-26.2266 0,-11.2507 2.72673,-20.5499 8.18164,-27.8984 5.71262,-7.6525 13.23018,-11.4785 22.55078,-11.4785 z m -517.35937,0.1504 c 8.84812,0 16.27968,3.8024 22.29296,11.4043 5.92739,7.3991 8.89063,16.3689 8.89063,26.9101 0,10.5919 -2.94174,19.6382 -8.82617,27.1387 -6.01329,7.7539 -13.46635,11.6309 -22.35742,11.6309 -8.93403,0 -16.40664,-3.8515 -22.41993,-11.5547 -5.88443,-7.4499 -8.82617,-16.4706 -8.82617,-27.0625 0,-10.592 2.94174,-19.6127 8.82617,-27.0625 6.05624,-7.6019 13.52885,-11.4043 22.41993,-11.4043 z m 600.27734,0.7617 c 9.87897,0 16.17293,4.7633 18.87891,14.291 2.66302,-4.0543 5.97028,-7.3998 9.92187,-10.0352 4.2093,-2.838 8.37465,-4.2558 12.49805,-4.2558 7.94613,0 13.44454,2.7356 16.49414,8.209 2.19055,4.0543 3.28515,10.4649 3.28515,19.2324 0,1.6724 -0.043,4.257 -0.1289,7.7539 -0.0859,3.4969 -0.12891,6.0815 -0.12891,7.7539 0,3.1928 0.0645,8.0071 0.19336,14.4434 0.12886,6.3855 0.19336,11.1763 0.19336,14.3691 0,1.9765 -0.49452,2.9629 -1.48242,2.9629 -0.64428,0 -1.63138,-0.074 -2.96289,-0.2266 -1.28856,-0.152 -2.27566,-0.2285 -2.96289,-0.2285 -0.73019,0 -1.82674,0.051 -3.28711,0.1524 -1.46037,0.1013 -2.55497,0.1523 -3.28516,0.1523 -0.90199,0 -1.35351,-1.1923 -1.35351,-3.5742 0,-2.3312 0.0645,-5.8023 0.19336,-10.4141 0.1718,-4.6624 0.25781,-8.159 0.25781,-10.4902 0,-12.8218 -0.043,-19.9678 -0.12891,-21.4375 -0.34361,-5.22 -1.24471,-8.8184 -2.70508,-10.7949 -1.67513,-2.1286 -4.66182,-3.1934 -8.95703,-3.1934 -2.70598,0 -5.75522,1.5218 -9.14843,4.5625 -3.52207,3.1928 -5.34771,6.3344 -5.47657,9.4258 -0.17181,3.953 -0.25781,11.1754 -0.25781,21.666 0,2.4833 0.086,6.2073 0.25781,11.1738 0.17181,4.9666 0.25781,8.6925 0.25781,11.1758 10e-6,1.3684 -0.38506,2.0508 -1.1582,2.0508 -0.77314,0 -1.91269,-0.074 -3.41601,-0.2266 -1.46037,-0.152 -2.57648,-0.2285 -3.34961,-0.2285 -0.68724,0 -1.69779,0.051 -3.0293,0.1524 -1.33151,0.1013 -2.34011,0.1523 -3.02734,0.1523 -0.85905,0 -1.28907,-0.7354 -1.28907,-2.2051 0,-2.4326 0.0645,-6.082 0.19336,-10.9472 0.12886,-4.9159 0.19336,-8.5889 0.19336,-11.0215 v -18.3224 c 0,-5.7266 -0.57857,-9.8056 -1.73828,-12.2382 -1.63218,-3.4461 -4.74788,-5.1703 -9.34375,-5.1703 -2.70598,0 -5.92723,1.3433 -9.66406,4.0293 -4.1234,2.9394 -6.1836,5.9046 -6.1836,8.8946 v 22.1975 c 0,2.5341 0.0215,6.3106 0.0645,11.3279 0.043,5.0172 0.0645,8.7671 0.0645,11.25 0,1.47 -0.49452,2.205 -1.48242,2.205 h -11.98438 c -0.85904,0 -1.28906,-0.6844 -1.28906,-2.0527 0,-4.105 0.0215,-10.2627 0.0644,-18.4727 0.043,-8.2607 0.0645,-14.4438 0.0645,-18.5488 0,-9.2743 -0.83659,-18.5225 -2.51172,-27.7461 -0.12886,-0.6588 -0.19336,-1.1922 -0.19336,-1.5977 0,-0.6588 0.19351,-1.0392 0.58008,-1.1406 1.58922,-0.2027 3.90743,-0.5812 6.95703,-1.1387 1.41742,-0.5068 3.54407,-1.0656 6.37891,-1.6738 l 0.51562,-0.076 c 0.51543,0 0.98845,1.8003 1.41797,5.3985 0.47247,3.5475 0.88099,5.3203 1.22461,5.3203 l 3.2207,-3.3438 c 2.53417,-2.5846 5.06739,-4.6378 7.60156,-6.1582 3.65093,-2.2298 7.3022,-3.3437 10.95313,-3.3437 z m -523.15625,0.1504 c 8.07499,0 13.5949,2.7631 16.55859,8.2871 2.19056,4.0543 3.28516,10.6179 3.28516,19.6894 0,1.5711 -0.043,3.9773 -0.12891,7.2207 -0.043,3.2435 -0.0645,5.6771 -0.0645,7.2989 0,3.3955 0.043,8.4628 0.12891,15.2031 0.0859,6.7403 0.1289,11.8076 0.1289,15.2031 0,1.115 -0.43002,1.6719 -1.28906,1.6719 -1.41742,0 -3.54212,-0.024 -6.37695,-0.074 -2.79189,-0.051 -4.89704,-0.076 -6.31446,-0.076 -0.77313,0 -1.16015,-0.7354 -1.16015,-2.2051 0,-2.4832 0.0645,-6.2582 0.19336,-11.3261 0.12885,-5.068 0.19336,-8.8704 0.19336,-11.4043 0,-2.0272 -0.0215,-5.0413 -0.0645,-9.045 -0.043,-4.0543 -0.0645,-7.0958 -0.0645,-9.123 0,-5.7774 -0.70954,-9.8564 -2.12695,-12.2383 -1.71809,-2.838 -4.89634,-4.2578 -9.53516,-4.2578 -2.1476,0 -5.13234,1.4198 -8.95508,4.2578 -4.03749,2.9901 -6.05664,5.6492 -6.05664,7.9805 v 45.6113 c 0,1.267 -0.40657,1.9004 -1.22265,1.9004 -1.37447,0 -3.43662,-0.024 -6.18555,-0.074 -2.74893,-0.051 -4.81108,-0.076 -6.18555,-0.076 -0.90199,0 -1.35351,-0.5844 -1.35351,-1.75 0,-4.0036 0.043,-10.0083 0.1289,-18.0156 0.12886,-8.0073 0.19336,-14.0375 0.19336,-18.0918 0,-10.7947 -0.96559,-20.7528 -2.89844,-29.875 -0.12885,-0.4561 -0.19336,-0.7856 -0.19336,-0.9883 0,-0.5068 0.27952,-0.8617 0.8379,-1.0644 0.30066,-0.051 2.74787,-0.5076 7.34375,-1.3692 4.63882,-0.9122 7.06649,-1.3691 7.28125,-1.3691 0.25771,0 0.42972,0.4059 0.51562,1.2168 0.21476,3.1421 0.70733,6.3091 1.48047,9.5019 2.23351,-2.0778 5.1772,-4.6625 8.82812,-7.7539 4.50997,-3.2434 8.86883,-4.8652 13.07813,-4.8652 z m 143.16016,0 c 8.07498,0 13.59294,2.7631 16.55664,8.2871 2.19055,4.0543 3.28711,10.6179 3.28711,19.6894 0,1.5711 -0.043,3.9773 -0.12891,7.2207 -0.0429,3.2435 -0.0644,5.6771 -0.0644,7.2989 0,3.3955 0.043,8.4628 0.1289,15.2031 0.0859,6.7403 0.12891,11.8076 0.12891,15.2031 0,1.115 -0.43002,1.6719 -1.28906,1.6719 -1.41742,0 -3.54407,-0.024 -6.37891,-0.074 -2.79188,-0.051 -4.89704,-0.076 -6.31445,-0.076 -0.77314,0 -1.15821,-0.7354 -1.15821,-2.2051 0,-2.4832 0.0645,-6.2582 0.19336,-11.3261 0.12886,-5.068 0.19336,-8.8704 0.19336,-11.4043 0,-2.0272 -0.0215,-5.0413 -0.0645,-9.045 -0.0429,-4.0543 -0.0644,-7.0958 -0.0644,-9.123 0,-5.7774 -0.70954,-9.8564 -2.12696,-12.2383 -1.71808,-2.838 -4.89633,-4.2578 -9.53515,-4.2578 -2.14761,0 -5.13235,1.4198 -8.95508,4.2578 -4.0375,2.9901 -6.05664,5.6492 -6.05664,7.9805 v 45.6113 c 0,1.267 -0.40852,1.9004 -1.22461,1.9004 -1.37447,0 -3.43662,-0.024 -6.18555,-0.074 -2.74893,-0.051 -4.80913,-0.076 -6.18359,-0.076 -0.902,0 -1.35352,-0.5844 -1.35352,-1.75 0,-4.0036 0.043,-10.0083 0.12891,-18.0156 0.12885,-8.0073 0.19336,-14.0375 0.19336,-18.0918 0,-10.7947 -0.96755,-20.7528 -2.90039,-29.875 -0.12886,-0.4561 -0.19336,-0.7856 -0.19336,-0.9883 0,-0.5068 0.27951,-0.8617 0.83789,-1.0644 0.30066,-0.051 2.74983,-0.5076 7.3457,-1.3692 4.63882,-0.9122 7.06454,-1.3691 7.2793,-1.3691 0.25771,0 0.42972,0.4059 0.51562,1.2168 0.21476,3.1421 0.70929,6.3091 1.48243,9.5019 2.2335,-2.0778 5.17524,-4.6625 8.82617,-7.7539 4.50996,-3.2434 8.87077,-4.8652 13.08008,-4.8652 z m -65.20118,2.6621 c 0.77314,0 1.95375,0.1255 3.54297,0.3789 1.63218,0.2534 2.85579,0.3809 3.67188,0.3809 0.81609,0 2.01819,-0.1275 3.60742,-0.3809 1.63218,-0.2534 2.85774,-0.3789 3.67383,-0.3789 0.73018,0 1.09375,0.4804 1.09375,1.4433 0,3.9023 -0.21306,9.807 -0.64258,17.7129 -0.38657,7.8553 -0.58008,13.76 -0.58008,17.7129 0,3.6996 0.0645,9.2474 0.19336,16.6465 0.12886,7.3485 0.19336,12.8472 0.19336,16.4961 0,1.0643 -0.38702,1.5977 -1.16016,1.5977 h -12.56445 c -0.90199,0 -1.35156,-1.0394 -1.35156,-3.1172 0,-3.4969 0.0645,-8.7426 0.19336,-15.7364 0.17181,-7.0443 0.25781,-12.3391 0.25781,-15.8867 0,-3.9529 -0.25801,-9.8831 -0.77344,-17.789 -0.47247,-7.906 -0.70898,-13.8361 -0.70898,-17.7891 0,-0.8615 0.45152,-1.291 1.35351,-1.291 z m 101.47266,0 c 1.24561,0 3.11425,0.025 5.60547,0.076 2.49122,0.051 4.35986,0.076 5.60547,0.076 0.85904,0 1.28906,0.557 1.28906,1.6719 0,1.9765 -0.27951,5.271 -0.83789,9.8828 -0.60133,4.9159 -0.92385,8.3869 -0.9668,10.4141 -0.12885,3.0407 -0.19336,6.3843 -0.19336,10.0332 0,8.8688 0.53753,14.8245 1.61133,17.8652 1.84694,5.4734 5.94974,8.211 12.30664,8.211 2.70598,0 5.90573,-1.5728 9.59961,-4.7149 3.90864,-3.2941 5.92779,-6.4612 6.05664,-9.5019 0.21476,-3.801 0.32031,-17.1791 0.32031,-40.1368 0,-2.4832 0.88155,-3.7246 2.64258,-3.7246 h 10.63086 c 1.24561,0 1.86719,0.8864 1.86719,2.6602 0,3.6996 -0.12705,9.2983 -0.38477,16.7988 -0.25771,7.4498 -0.38672,13.0505 -0.38672,16.8008 0,3.6996 0.086,9.2493 0.25782,16.6484 0.21476,7.3485 0.32031,12.8727 0.32031,16.5723 0,1.0136 -0.40657,1.6725 -1.22266,1.9766 -0.34361,0.1013 -4.70442,0.1523 -13.08007,0.1523 -0.51543,0 -0.83599,-1.9002 -0.96485,-5.7012 -0.0859,-3.8009 -0.32241,-5.7031 -0.70898,-5.7031 -0.21476,0 -0.53728,0.2294 -0.9668,0.6856 -7.17299,7.3484 -14.26053,11.0214 -21.26172,11.0214 -9.4924,0 -15.7629,-4.0534 -18.8125,-12.1621 -1.88989,-5.0172 -2.83594,-14.0379 -2.83594,-27.0625 0,-11.7575 0.79554,-21.7156 2.38477,-29.875 0.38657,-1.9765 1.09415,-2.9648 2.125,-2.9648 z m 94.19531,10.2617 c -3.95159,0 -7.47386,1.8748 -10.5664,5.625 -3.0496,3.7503 -4.57422,7.9567 -4.57422,12.6191 0,1.0643 0.77208,1.5977 2.31836,1.5977 6.3569,0 13.96047,-0.7609 22.80859,-2.2812 2.49122,-0.4055 3.73633,-0.9114 3.73633,-1.5196 0,-4.2063 -1.41712,-7.9323 -4.25195,-11.1758 -2.79189,-3.2434 -5.94864,-4.8652 -9.47071,-4.8652 z m 349.00781,0 c -3.95158,0 -7.47385,1.8748 -10.5664,5.625 -3.0496,3.7503 -4.57422,7.9567 -4.57422,12.6191 0,1.0643 0.77209,1.5977 2.31836,1.5977 6.3569,0 13.96047,-0.7609 22.80859,-2.2812 2.49122,-0.4055 3.73633,-0.9114 3.73633,-1.5196 0,-4.2063 -1.41712,-7.9323 -4.25195,-11.1758 -2.79189,-3.2434 -5.94864,-4.8652 -9.47071,-4.8652 z m -251.91406,1.0645 c -4.63882,0 -8.3976,2.1787 -11.27539,6.5371 -2.62007,3.9529 -3.92969,8.7418 -3.92969,14.3672 0,5.524 1.33112,10.2893 3.99414,14.2929 2.87779,4.3584 6.61507,6.5371 11.21094,6.5371 4.55292,0 8.28825,-2.1787 11.20899,-6.5371 2.70598,-4.0036 4.05859,-8.7689 4.05859,-14.2929 0,-5.6761 -1.30961,-10.4904 -3.92969,-14.4434 -2.87779,-4.3078 -6.65611,-6.4609 -11.33789,-6.4609 z m 71.38477,0.1523 c -5.15425,0 -9.4486,2.3807 -12.88477,7.1445 -3.30731,4.5612 -4.96094,9.9344 -4.96094,16.1172 0,6.1322 1.65363,11.4525 4.96094,15.9629 3.43617,4.7132 7.73052,7.0703 12.88477,7.0703 5.02539,0 9.23569,-2.4062 12.6289,-7.2207 3.17846,-4.5104 4.76758,-9.7817 4.76758,-15.8125 0,-6.2335 -1.56762,-11.5812 -4.70312,-16.041 -3.30731,-4.8145 -7.53911,-7.2207 -12.69336,-7.2207 z m -519.22656,0.6836 c -5.15425,0 -9.4271,2.2807 -12.82032,6.8418 -3.2214,4.4091 -4.83203,9.7058 -4.83203,15.8887 0,6.0815 1.63213,11.3508 4.89649,15.8105 3.43616,4.7132 7.68751,7.0703 12.75586,7.0703 5.11129,0 9.3646,-2.3571 12.75781,-7.0703 3.2214,-4.4597 4.83203,-9.729 4.83203,-15.8105 0,-6.1829 -1.61063,-11.4541 -4.83203,-15.8125 -3.35026,-4.6118 -7.60357,-6.918 -12.75781,-6.918 z" />
      <path
         id="rect22"
         style="fill:#ececec;fill-opacity:0.815029;fill-rule:nonzero;stroke:none;stroke-width:10;stroke-linecap:square;stroke-linejoin:bevel;stroke-dasharray:10, 10;stroke-dashoffset:0;stroke-opacity:0.763006;paint-order:fill markers stroke"
         d="m 58.599502,1810.8971 v 124.0937 H 1037.5585 v -124.0937 z m 362.326168,6.1445 c 2.2376,0 4.15563,0.8245 5.75391,2.4746 1.63824,1.6501 2.45703,3.7723 2.45703,6.3653 0,5.7988 -2.73682,8.6992 -8.21094,8.6992 -5.55403,0 -8.33203,-2.9004 -8.33203,-8.6992 0,-2.593 0.85997,-4.7384 2.57813,-6.4356 1.59828,-1.6029 3.51631,-2.4043 5.7539,-2.4043 z m 23.25391,2.334 c 0.35961,0 4.11526,0.7299 11.26758,2.1914 0.91901,0.1414 1.3789,0.6609 1.3789,1.5567 0,2.0743 -0.14022,5.1851 -0.41992,9.3339 -0.23974,4.1488 -0.35937,7.2616 -0.35937,9.336 0,1.3672 0.5403,2.0508 1.61914,2.0508 h 14.38476 c 0.67927,0 1.01758,0.2819 1.01758,0.8476 0,0.5658 -0.0785,1.4849 -0.23828,2.7578 -0.11987,1.2258 -0.17969,2.1449 -0.17969,2.7578 0,0.7072 0.0186,1.7924 0.0586,3.2539 0.0399,1.4615 0.0605,2.5468 0.0605,3.2539 0,0.8958 -0.55893,1.3418 -1.67773,1.3418 -1.59828,0 -4.01543,-0.1177 -7.25195,-0.3535 -3.23653,-0.2828 -5.65367,-0.4238 -7.25196,-0.4238 -0.31965,0 -0.56087,1.344 -0.7207,4.0312 -0.19979,3.3474 -0.29883,8.0377 -0.29883,14.0723 v 10.5371 c 0,4.0545 0.31967,6.8834 0.95899,8.4864 0.95897,2.4515 2.93681,3.6777 5.93359,3.6777 1.23867,0 3.0557,-0.307 5.45312,-0.9199 2.39743,-0.6601 4.17719,-0.9903 5.33594,-0.9903 0.47949,0 0.71875,0.4249 0.71875,1.2735 0,1.0372 -0.0804,2.4526 -0.24023,4.2441 -0.19979,2.2158 -0.31942,3.6525 -0.35938,4.3125 -0.0399,0.8486 -0.0998,1.3681 -0.17969,1.5566 -0.15982,0.3301 -0.53931,0.6603 -1.13867,0.9903 -3.27648,1.8387 -8.43044,2.7578 -15.46289,2.7578 -9.34995,0 -14.02539,-4.9974 -14.02539,-14.9922 0,-4.0073 0.0784,-10.0185 0.23828,-18.0332 0.15983,-8.0618 0.24024,-14.0962 0.24024,-18.1035 0,-1.933 -0.81879,-2.9699 -2.45703,-3.1113 -1.47842,0 -2.93655,-0.025 -4.375,-0.072 -0.8391,-0.2357 -1.25977,-2.1686 -1.25977,-5.7988 0,-1.3672 0.0804,-2.8039 0.24023,-4.3125 0.11988,-1.1315 0.75922,-1.8151 1.91797,-2.0508 0.99893,0 1.97853,-0.025 2.9375,-0.072 1.83803,-0.094 2.75586,-1.0597 2.75586,-2.8984 0,-1.8858 -0.0598,-4.7611 -0.17968,-8.627 -0.0799,-3.8659 -0.11915,-6.7662 -0.11915,-8.6992 0,-3.4416 0.55894,-5.1621 1.67774,-5.1621 z m -118.49219,20.2949 c 7.51193,0 13.78572,3.2537 18.82031,9.7598 4.91472,6.3175 7.3711,14.0028 7.3711,23.0547 0,3.4887 -1.27869,5.8213 -3.83594,7 -1.71815,0.7543 -14.08433,2.1466 -37.09961,4.1738 0.51944,4.1488 2.45806,7.6844 5.81445,10.6074 3.19657,2.7816 6.63255,4.1719 10.3086,4.1719 6.31322,0 12.10652,-2.4041 17.38086,-7.2129 l 1.91797,-1.8398 c 0.31965,0 0.51969,0.048 0.59961,0.1425 0.11987,0.094 0.87884,1.7434 2.27734,4.9493 1.3985,3.1587 2.09766,4.856 2.09766,5.0918 0,0.2828 -0.31968,0.8254 -0.95899,1.6269 -5.87369,7.3547 -13.40558,11.0332 -22.5957,11.0332 -9.27004,0 -16.66171,-3.2537 -22.17578,-9.7597 -5.51408,-6.5532 -8.27149,-15.2755 -8.27149,-26.1661 0,-9.7119 2.63778,-18.1735 7.91211,-25.3867 5.55404,-7.4961 12.36617,-11.2461 20.4375,-11.2461 z m 446.93945,0 c 7.51193,0 13.78573,3.2537 18.82032,9.7598 4.91472,6.3175 7.37304,14.0028 7.37304,23.0547 0,3.4887 -1.27868,5.8213 -3.83593,7 -1.71816,0.7543 -14.08629,2.1466 -37.10157,4.1738 0.51945,4.1488 2.45806,7.6844 5.81446,10.6074 3.19656,2.7816 6.63254,4.1719 10.30859,4.1719 6.31322,0 12.10653,-2.4041 17.38086,-7.2129 l 1.91797,-1.8398 c 0.31966,0 0.51969,0.048 0.59961,0.1425 0.11987,0.094 0.87884,1.7434 2.27734,4.9493 1.3985,3.1587 2.09766,4.856 2.09766,5.0918 0,0.2828 -0.31967,0.8254 -0.95899,1.6269 -5.87369,7.3547 -13.40557,11.0332 -22.5957,11.0332 -9.27004,0 -16.6617,-3.2537 -22.17578,-9.7597 -5.51408,-6.5532 -8.27148,-15.2755 -8.27148,-26.1661 0,-9.7119 2.63777,-18.1735 7.9121,-25.3867 5.55404,-7.4961 12.36618,-11.2461 20.4375,-11.2461 z m -220.32226,0.1426 c 0.39957,0 2.55686,0.448 6.47266,1.3438 3.91579,0.8486 6.05249,1.3661 6.4121,1.5546 0.5594,0.2358 0.83985,0.8498 0.83985,1.8399 0,5.6574 -0.0392,14.1673 -0.11914,25.5293 -0.0799,11.3149 -0.1211,19.8015 -0.1211,25.459 0,11.2205 -2.03766,19.4929 -6.11328,24.8203 -4.2754,5.6574 -11.10813,8.4863 -20.49804,8.4863 -9.07026,0 -16.40211,-2.0275 -21.9961,-6.082 -0.87905,-0.6601 -1.31836,-1.2258 -1.31836,-1.6973 0,0.5186 0.60012,-2.9687 1.79883,-10.4648 0.11987,-0.8015 0.39836,-1.2032 0.83789,-1.2032 0.19979,0 0.45964,0.1178 0.7793,0.3536 5.99356,4.0545 12.0075,6.082 18.04101,6.082 3.95575,0 7.23287,-1.0369 9.83008,-3.1113 2.99678,-2.3573 4.49414,-5.7751 4.49414,-10.2539 0,-0.9901 -0.0804,-3.2069 -0.24023,-6.6485 -4.43524,6.3646 -10.06773,9.5469 -16.90039,9.5469 -7.39206,0 -13.46581,-3.134 -18.2207,-9.4043 -4.55511,-6.0346 -6.83399,-13.4612 -6.83399,-22.2774 0,-8.9576 2.19847,-16.5714 6.59375,-22.8417 4.67498,-6.6947 10.74873,-10.0411 18.2207,-10.0411 6.59292,0 11.82729,2.9931 15.70313,8.9805 0.63931,0.9901 1.09921,1.4863 1.37891,1.4863 0.31965,0 0.47851,-0.4248 0.47851,-1.2734 0,-0.6129 -0.0392,-1.5803 -0.11914,-2.9004 -0.0799,-1.3672 -0.12109,-2.381 -0.12109,-3.041 0,-2.8287 0.24121,-4.2422 0.7207,-4.2422 z m 49.80664,0.4238 c 6.11343,0 11.44685,2.4987 16.00195,7.4961 0.67927,0.9429 1.73928,2.3101 3.17774,4.1016 0.11987,0.1414 0.2395,0.2129 0.35937,0.2129 0.23974,0 0.57805,-1.4849 1.01758,-4.4551 0.43953,-2.9702 1.00042,-4.4551 1.67969,-4.4551 1.07884,0 3.09591,0.3534 6.05273,1.0606 3.27648,0.8486 4.91406,1.6017 4.91406,2.2617 10e-6,0.1886 -0.0598,0.6134 -0.17968,1.2734 -1.55833,10.7963 -2.33789,20.1075 -2.33789,27.9336 0,0.4715 0.50107,11.0552 1.5,31.752 l 0.0586,0.9902 c 0.04,1.3672 -0.49839,2.0508 -1.61719,2.0508 -1.07884,0 -2.73701,0.1429 -4.97461,0.4258 -2.19764,0.33 -3.83717,0.4941 -4.91601,0.4941 -0.75919,0 -1.33676,-1.651 -1.73633,-4.9512 -0.39957,-3.3001 -0.78101,-4.9492 -1.14062,-4.9492 -0.23975,0 -1.31839,0.9192 -3.23633,2.7578 -2.35747,2.263 -4.55399,3.9835 -6.5918,5.1621 -3.15661,1.8859 -6.31409,2.8301 -9.4707,2.8301 -7.75168,0 -14.28337,-3.6554 -19.59766,-10.9629 -5.03459,-6.9775 -7.55273,-15.1088 -7.55273,-24.3965 0,-10.4662 2.53678,-19.117 7.61132,-25.9531 5.3143,-7.1189 12.30784,-10.6797 20.97852,-10.6797 z m 77.13672,0.8496 c 9.19013,0 15.04325,4.4316 17.56055,13.295 2.47733,-3.7717 5.55441,-6.8844 9.23046,-9.336 3.9158,-2.6401 7.79108,-3.959 11.62696,-3.959 7.39206,0 12.5068,2.5451 15.34375,7.6368 2.03781,3.7716 3.05664,9.7364 3.05664,17.8925 0,1.5558 -0.0392,3.9599 -0.11914,7.2129 -0.0799,3.2531 -0.11914,5.6571 -0.11914,7.2129 0,2.9702 0.0598,7.4481 0.17968,13.4356 0.11988,5.9403 0.17969,10.397 0.17969,13.3672 0,1.8386 -0.45989,2.7578 -1.3789,2.7578 -0.59936,0 -1.51915,-0.072 -2.75782,-0.2129 -1.19871,-0.1415 -2.11654,-0.2129 -2.75586,-0.2129 -0.67927,0 -1.6981,0.048 -3.05664,0.1426 -1.35854,0.094 -2.37737,0.1406 -3.05664,0.1406 -0.8391,0 -1.25976,-1.1064 -1.25976,-3.3223 0,-2.1687 0.0598,-5.3992 0.17968,-9.6894 0.15983,-4.3374 0.24024,-7.5911 0.24024,-9.7598 0,-11.9278 -0.0392,-18.5742 -0.11914,-19.9414 -0.31966,-4.856 -1.15904,-8.2043 -2.51758,-10.043 -1.55833,-1.9801 -4.33632,-2.9687 -8.33203,-2.9687 -2.5173,0 -5.35316,1.4134 -8.50977,4.2422 -3.27648,2.9701 -4.97583,5.8936 -5.0957,8.7695 -0.15983,3.6773 -0.23828,10.3952 -0.23828,20.1543 0,2.3101 0.0785,5.7762 0.23828,10.3965 0.15983,4.6202 0.24023,8.0844 0.24023,10.3945 0,1.2729 -0.35889,1.9102 -1.07812,1.9102 -0.71923,0 -1.77924,-0.072 -3.17774,-0.2129 -1.35854,-0.1415 -2.39796,-0.2129 -3.11718,-0.2129 -0.63932,0 -1.57774,0.048 -2.81641,0.1426 -1.23867,0.094 -2.17709,0.1406 -2.81641,0.1406 -0.79914,0 -1.19921,-0.6836 -1.19921,-2.0508 0,-2.263 0.0598,-5.6576 0.17968,-10.1836 0.11987,-4.5731 0.17969,-7.9909 0.17969,-10.2539 v -17.043 c 0,-5.3274 -0.53835,-9.1218 -1.61719,-11.3847 -1.51837,-3.2059 -4.416,-4.8086 -8.6914,-4.8086 -2.5173,0 -5.51397,1.2493 -8.99024,3.748 -3.83588,2.7345 -5.7539,5.4919 -5.7539,8.2735 v 20.6504 c 0,2.3572 0.0206,5.8697 0.0605,10.5371 0.04,4.6673 0.0586,8.1547 0.0586,10.4648 0,1.3672 -0.45794,2.0508 -1.37696,2.0508 h -11.14843 c -0.79914,0 -1.19922,-0.6353 -1.19922,-1.9082 0,-3.8188 0.0206,-9.548 0.0605,-17.1856 0.04,-7.6846 0.0606,-13.4351 0.0606,-17.2539 0,-8.6276 -0.77956,-17.232 -2.33789,-25.8125 -0.11987,-0.6129 -0.17969,-1.1091 -0.17969,-1.4863 0,-0.6129 0.17945,-0.9663 0.53907,-1.0605 1.47841,-0.1886 3.6357,-0.542 6.47265,-1.0606 1.31859,-0.4714 3.29643,-0.9889 5.9336,-1.5547 l 0.48047,-0.072 c 0.47948,0 0.91878,1.6741 1.31835,5.0214 0.43953,3.3002 0.81902,4.9512 1.13868,4.9512 l 2.99609,-3.1113 c 2.35747,-2.4044 4.7148,-4.3142 7.07227,-5.7285 3.39635,-2.0744 6.7931,-3.1114 10.18945,-3.1114 z m -321.31445,1.9082 c 0.99892,0 2.49628,0.095 4.49414,0.2832 1.99785,0.1886 3.49716,0.2832 4.49609,0.2832 0.5594,1e-4 1.05852,0.3303 1.49805,0.9903 2.35746,4.2902 5.95425,10.6064 10.78906,18.9512 0.95897,1.5558 1.47673,2.3339 1.55664,2.3339 0.11987,0 0.55917,-0.6121 1.31836,-1.8378 2.31751,-3.7245 6.13493,-10.3015 11.44922,-19.7305 0.39957,-0.6601 0.85946,-0.9903 1.3789,-0.9903 0.99893,0 2.4757,-0.046 4.4336,-0.1406 1.95789,-0.094 3.41798,-0.1426 4.37695,-0.1426 0.99893,0 1.49805,0.4712 1.49805,1.4141 v 7.4258 c 0,0.8486 -2.677,5.0446 -8.03125,12.5879 -5.31429,7.5432 -7.97266,11.6929 -7.97266,12.4472 0,0.4715 2.65837,4.5014 7.97266,12.0918 5.35425,7.5904 8.03125,11.8096 8.03125,12.6582 v 7.5684 c 0,0.66 -0.42067,1.108 -1.25977,1.3438 -0.59935,0.1414 -1.45737,0.1646 -2.57617,0.07 -1.63824,-0.094 -2.35799,-0.1426 -2.1582,-0.1426 -3.15661,0 -5.05405,-0.4229 -5.69336,-1.2715 -2.43738,-4.2902 -6.15381,-10.5852 -11.14844,-18.8828 -0.95897,-1.5087 -1.49927,-2.2617 -1.61914,-2.2617 -0.35961,0 -2.59731,3.6051 -6.71289,10.8183 -4.19549,7.3547 -6.73227,11.1259 -7.61133,11.3145 -0.87905,0.1886 -3.71492,0.2832 -8.50976,0.2832 -0.95897,0 -1.43946,-0.4229 -1.43946,-1.2715 v -7.709 c 0,-0.5186 2.65641,-4.5737 7.97071,-12.164 5.31429,-7.5904 7.97265,-11.7633 7.97265,-12.5176 0,-0.7072 -2.65836,-4.8318 -7.97265,-12.375 -5.3143,-7.5433 -7.97071,-11.691 -7.97071,-12.4453 v -7.5684 c 0,-0.9429 0.48049,-1.4141 1.43946,-1.4141 z m 56.27929,0.7071 c 0.71923,0 1.81847,0.1178 3.29688,0.3535 1.51837,0.2357 2.65683,0.3535 3.41601,0.3535 0.75919,0 1.87706,-0.1178 3.35547,-0.3535 1.51837,-0.2357 2.65683,-0.3535 3.41602,-0.3535 0.67927,0 1.01953,0.448 1.01953,1.3437 0,3.6302 -0.20004,9.1239 -0.59961,16.4785 -0.35961,7.3076 -0.53906,12.7993 -0.53906,16.4766 0,3.4416 0.0598,8.6031 0.17968,15.4863 0.11988,6.8361 0.17969,11.9532 0.17969,15.3477 0,0.99 -0.3589,1.4844 -1.07812,1.4844 h -11.6875 c -0.8391,0 -1.25977,-0.9675 -1.25977,-2.9004 0,-3.2531 0.0598,-8.1327 0.17969,-14.6387 0.15983,-6.5532 0.24023,-11.4791 0.24023,-14.7793 0,-3.6773 -0.23926,-9.1942 -0.71875,-16.5488 -0.43952,-7.3547 -0.66015,-12.8696 -0.66015,-16.5469 0,-0.8015 0.42066,-1.2031 1.25976,-1.2031 z m -89.36523,9.5469 c -3.67605,0 -6.95122,1.7456 -9.82813,5.2343 -2.83695,3.4888 -4.25586,7.4009 -4.25586,11.7383 0,0.9901 0.71975,1.4863 2.15821,1.4863 5.91364,0 12.98564,-0.7087 21.21679,-2.123 2.31751,-0.3772 3.47657,-0.8483 3.47657,-1.4141 0,-3.913 -1.31987,-7.3772 -3.95703,-10.3945 -2.59721,-3.0173 -5.53407,-4.5273 -8.81055,-4.5273 z m 446.9414,0 c -3.67605,0 -6.95316,1.7456 -9.83007,5.2343 -2.83696,3.4888 -4.25586,7.4009 -4.25586,11.7383 0,0.9901 0.71975,1.4863 2.1582,1.4863 5.91365,0 12.98564,-0.7087 21.2168,-2.123 2.31751,-0.3772 3.47656,-0.8483 3.47656,-1.4141 0,-3.913 -1.31791,-7.3772 -3.95508,-10.3945 -2.59721,-3.0173 -5.53407,-4.5273 -8.81055,-4.5273 z m -234.34961,0.9902 c -4.31536,0 -7.81115,2.0275 -10.48828,6.082 -2.43738,3.6773 -3.65625,8.1321 -3.65625,13.3652 0,5.1389 1.23946,9.5705 3.7168,13.295 2.67712,4.0545 6.15233,6.082 10.42773,6.082 4.23545,0 7.71261,-2.0275 10.42969,-6.082 2.5173,-3.7245 3.77539,-8.1561 3.77539,-13.295 0,-5.2802 -1.21887,-9.7582 -3.65625,-13.4355 -2.67712,-4.0073 -6.1935,-6.0117 -10.54883,-6.0117 z m 66.41016,0.1426 c -4.79485,0 -8.79171,2.2148 -11.98828,6.6464 -3.07669,4.2431 -4.61523,9.2405 -4.61523,14.9922 0,5.7046 1.53854,10.6557 4.61523,14.8516 3.19657,4.3845 7.19343,6.5762 11.98828,6.5762 4.67498,0 8.58949,-2.24 11.7461,-6.7188 2.95682,-4.1959 4.43554,-9.0987 4.43554,-14.709 0,-5.7988 -1.45813,-10.7731 -4.375,-14.9218 -3.07669,-4.4788 -7.01179,-6.7168 -11.80664,-6.7168 z" />
    </g>
  </g>
</svg>
